<?xml version="1.0" encoding="UTF-8"?><svg xmlns="http://www.w3.org/2000/svg" version="1.1" viewBox="0 0 25.5 31.8" fill="currentColor"><path d="M25.4,25.5l-.7-2.5h0s-.4-1.3-.4-1.3c-.4.6-1,1.1-1.7,1.3l.8,3-13.5,3.6c-1.1.3-2.2-.4-2.5-1.5,0-.1,0-.3,0-.4,0-.7.2-1.3.8-1.7,0,0,0,0,0,0,.2-.2.5-.3.7-.4h0s0,0,0,0l13.4-3.6s0,0,0,0h0s0,0,0,0c.7-.2,1.2-.7,1.4-1.3,0,0,0,0,0,0,.1-.4.1-.8,0-1.2L19,1.5c-.3-1.1-1.4-1.8-2.5-1.5L3,3.7s0,0,0,0h0C.8,4.2-.4,6.4.1,8.6l5.3,19.7s0,0,0,0v.5q.1,0,.1,0h0s0,0,0,0c.6,2.2,2.9,3.5,5.1,2.9l13.3-3.6c1.1-.3,1.8-1.4,1.5-2.5ZM13.1,7.8l.3-.2c.2-.1.3-.3.3-.5v-.3c0-.6.9-.8,1.2-.3v.2c.3.2.4.3.6.3h.3c.6,0,.8.9.3,1.2l-.3.2c-.2.1-.3.3-.3.5v.3c0,.6-.9.8-1.2.3v-.2c-.3-.2-.4-.3-.6-.3h-.3c-.6,0-.8-.9-.3-1.2ZM8.9,15.4l1.5-1.1c.2-.1.3-.3.3-.5l.2-1.9c0-.6.8-.8,1.2-.3l1.1,1.5c.1.2.3.3.5.3l1.9.2c.6,0,.8.8.3,1.2l-1.5,1.1c-.2.1-.3.3-.3.5l-.2,1.9c0,.6-.8.8-1.2.3l-1.1-1.5c-.1-.2-.3-.3-.5-.3l-1.9-.2c-.6,0-.8-.8-.3-1.2Z"/></svg>
