<svg viewBox="0 0 33 33" fill="currentColor"
  xmlns="http://www.w3.org/2000/svg">
  <path mask="url(#mask)" d="M16.1067 0C0 0 0 9.87337 0 16.1067C0 22.34 0 32.2134 16.1067 32.2134C32.2134 32.2134 32.2134 22.34 32.2134 16.1067C32.2134 9.87337 32.2134 0 16.1067 0Z" fill="currentColor"></path>
  <defs>
    <mask id="mask">
      <path d="M16.1067 0C0 0 0 9.87337 0 16.1067C0 22.34 0 32.2134 16.1067 32.2134C32.2134 32.2134 32.2134 22.34 32.2134 16.1067C32.2134 9.87337 32.2134 0 16.1067 0Z" fill="#fff"></path>
      <path d="M11.3373 10.4023L10.0031 11.1942L13.8545 18.0513L15.1887 17.2594L11.3373 10.4023Z" fill="rgb(0 0 0 / 56.46%)"></path>
      <path d="M7.10537 14.1729L6.33508 15.5443L13.0057 19.5033L13.776 18.1319L7.10537 14.1729Z" fill="rgb(0 0 0 / 61.18%)"></path>
      <path d="M12.9809 19.6064H5.27808V21.1901H12.9809V19.6064Z" fill="rgb(0 0 0 / 100.00%)"></path>
      <path d="M26.8477 19.6064H19.1449V21.1901H26.8477V19.6064Z" fill="rgb(0 0 0 / 79.61%)"></path>
      <path d="M25.0165 14.1729L18.3458 18.1319L19.1161 19.5033L25.7868 15.5443L25.0165 14.1729Z" fill="rgb(0 0 0 / 89.41%)"></path>
      <path d="M20.788 10.4023L16.9365 17.2595L18.2707 18.0513L22.122 11.1942L20.788 10.4023Z" fill="rgb(0 0 0 / 84.31%)"></path>
      <path d="M16.8318 9.31323H15.2913V17.2314H16.8318V9.31323Z" fill="rgb(0 0 0 / 80.39%)"></path>
    </mask>
  </defs>
</svg>
