<svg width="29" height="40" viewBox="0 0 29 40" fill="currentColor" xmlns="http://www.w3.org/2000/svg"><path d="M9.33953 12.7958C9.23505 12.8974 9.23237 13.0667 9.33388 13.1723L10.755 14.6505C10.8485 14.7474 11.0042 14.7508 11.1015 14.6586C11.9928 13.8159 13.177 13.302 14.4767 13.302C15.7761 13.302 16.9599 13.8159 17.8515 14.6586C17.9488 14.7508 18.1048 14.7474 18.198 14.6505L19.6195 13.1723C19.7207 13.0667 19.718 12.8974 19.6132 12.7958C18.2665 11.4882 16.4598 10.687 14.4767 10.687C12.4932 10.687 10.6866 11.4882 9.33953 12.7958ZM28.4532 7.63575L18.6177 17.8643C16.3399 20.2329 12.6129 20.2329 10.3353 17.8643L0.499812 7.63575C0.315545 7.4435 0 7.57972 0 7.85091V25.988C0 26.6818 0.386095 27.6508 0.857924 28.1415L10.3353 37.9979C12.6129 40.3665 16.3399 40.3665 18.6177 37.9979L28.0957 28.1415C28.5672 27.6508 28.953 26.6818 28.953 25.988V7.85091C28.953 7.57972 28.6378 7.4435 28.4532 7.63575ZM21.7533 10.9529L23.1756 9.47404C23.2762 9.3694 23.2732 9.2013 23.1705 9.09883C20.912 6.84384 17.847 5.4563 14.4767 5.4563C11.1057 5.4563 8.04104 6.84384 5.78251 9.09883C5.67981 9.2013 5.67683 9.3694 5.77745 9.47404L7.19948 10.9529C7.29445 11.0517 7.45222 11.0545 7.54926 10.9585C9.35293 9.17065 11.7936 8.07164 14.4767 8.07164C17.1591 8.07164 19.5998 9.17065 21.4038 10.9585C21.5005 11.0545 21.6586 11.0517 21.7533 10.9529ZM3.64395 7.25527C3.7395 7.35434 3.89817 7.35713 3.99521 7.25961C6.71039 4.5257 10.4079 2.84096 14.4767 2.84096C18.5454 2.84096 22.2426 4.5257 24.9578 7.25961C25.0549 7.35713 25.2135 7.35434 25.3091 7.25527L26.7308 5.77671C26.8297 5.67424 26.8297 5.50614 26.7296 5.40491C23.5596 2.20105 19.2357 0.225616 14.4767 0.225616C9.7173 0.225616 5.39344 2.20105 2.2234 5.40491C2.12338 5.50614 2.12368 5.67424 2.22221 5.77671L3.64395 7.25527Z"></path></svg>
