<?xml version="1.0" encoding="UTF-8"?>
<svg viewBox="0 0 491 600" version="1.1" xmlns="http://www.w3.org/2000/svg">
  <style type="text/css">
    #frontCover {
      fill: currentColor;
    }
    #spine {
      fill: color-mix(in srgb, currentColor 45%, #000 55%);
    }
    #backCover {
      fill: color-mix(in srgb, currentColor 78%, #000 22%);
    }
  </style>
  <path id="backCover" d="M57.9085101,72 L168.871,484.298 L168.597196,484.37179 C148.065859,489.863565 135.798001,510.772035 140.946697,531.276187 L141.108058,531.897385 C146.66483,552.598769 167.98185,564.883351 188.720575,559.336103 L451.576642,489.032034 L431.473,414.142 L441.350384,411.494035 C456.914438,407.321483 472.910517,416.561901 477.080256,432.136455 L489.66473,479.133453 C495.225312,499.898595 482.911202,521.243878 462.160059,526.808211 L199.149851,597.328809 C157.797667,608.414522 115.297106,583.98732 103.990188,542.728678 L103.754343,542.790068 L2.6806747,167.236622 C-8.48353855,125.75409 16.2427159,83.1153875 57.9085101,72 Z"></path>
  <path id="spine" d="M421,376.003042 L458.545091,366 L478.665695,440.665562 C484.222257,461.283681 471.917049,482.475064 451.180906,488 L421,376.003042 Z"></path>
  <path id="frontCover" d="M368.149493,28.7995286 L458.66608,366.478784 C464.18936,387.082425 452.059107,408.255661 431.543055,413.954748 L431.531769,413.910314 L168.838827,484.27051 C148.112973,489.822187 135.813147,511.116136 141.366749,531.834047 C141.371683,531.852456 141.37663,531.870857 141.381589,531.889253 L140.96589,532 L30.3336702,119.280507 C24.7792686,98.5586952 37.0812046,77.2593443 57.8113631,71.7071789 L320.555054,1.33320491 C341.285212,-4.21915526 362.594534,8.07796691 368.149493,28.7995286 Z M208.991739,223.543671 L205.582904,260.215554 C205.249236,263.804054 203.363301,267.067571 200.419587,269.150476 L170.336367,290.435851 C160.973538,297.061246 164.912382,311.74833 176.33623,312.807387 L213.041618,316.213696 C216.63197,316.546223 219.898724,318.432407 221.985195,321.372059 L243.289015,351.428048 C249.920412,360.783519 264.620803,356.846285 265.68082,345.434175 L269.090214,308.761174 C269.423043,305.173233 271.310935,301.909437 274.253251,299.827649 L304.336471,278.540318 C313.700419,271.917718 309.759618,257.229516 298.337168,256.16962 L261.630941,252.763591 C258.039749,252.430505 254.772996,250.545998 252.689322,247.605228 L231.382705,217.549239 C224.754104,208.194885 210.052874,212.130163 208.991739,223.543671 Z M263.816831,129.341016 L263.213855,135.810308 C262.880115,139.408376 260.989856,142.681129 258.036677,144.769471 L252.73049,148.524451 C243.340894,155.167468 247.292489,169.894298 258.746225,170.957383 L265.221905,171.558135 C268.822933,171.892415 272.098634,173.781814 274.188016,176.730934 L277.946098,182.032907 C284.595659,191.412932 299.336315,187.466575 300.399235,176.022025 L301.002211,169.552733 C301.335951,165.954665 303.22621,162.682192 306.17939,160.59357 L311.485577,156.83859 C320.875173,150.195853 316.923578,135.468743 305.469841,134.405658 L298.994161,133.804906 C295.393133,133.470906 292.117432,131.581227 290.028051,128.632387 L286.269969,123.330414 C279.620407,113.950389 264.879752,117.896466 263.816831,129.341016 Z"></path>
</svg>
