<?xml version="1.0" standalone="no"?>
<!DOCTYPE svg PUBLIC "-//W3C//DTD SVG 20010904//EN"
 "http://www.w3.org/TR/2001/REC-SVG-20010904/DTD/svg10.dtd">
<svg version="1.0" xmlns="http://www.w3.org/2000/svg"
 width="200.000000pt" height="200.000000pt" viewBox="0 0 200.000000 200.000000"
 preserveAspectRatio="xMidYMid meet">
<metadata>
Created by potrace 1.11, written by Peter Selinger 2001-2013
</metadata>
<g transform="translate(0.000000,200.000000) scale(0.100000,-0.100000)"
fill="#000000" stroke="none">
<path d="M396 1310 c-1 -3 -2 -133 -2 -290 l1 -285 37 -3 c28 -2 40 2 49 16
12 19 13 19 45 -3 51 -34 140 -19 186 32 78 86 64 288 -24 343 -44 28 -125 23
-169 -9 l-30 -22 2 68 c0 37 1 88 0 113 l-1 46 -46 0 c-25 0 -47 -3 -48 -6z
m240 -271 c13 -14 20 -40 22 -88 6 -106 -32 -158 -105 -145 -54 10 -63 28 -61
123 1 74 4 88 24 108 31 30 93 32 120 2z"/>
<path d="M914 1120 c-73 -37 -111 -114 -101 -205 8 -83 54 -152 117 -177 63
-26 201 0 237 44 11 12 9 19 -11 37 l-23 22 -52 -20 c-85 -34 -148 -7 -167 71
l-6 27 133 3 134 3 2 40 c2 54 -27 117 -68 146 -47 33 -139 38 -195 9z m129
-61 c23 -10 47 -46 47 -69 0 -11 -163 -14 -173 -4 -11 11 16 55 42 69 32 17
53 18 84 4z"/>
<path d="M1256 1130 c-1 -3 -2 -93 -2 -200 l1 -195 48 -3 c54 -4 49 -23 49
171 1 113 2 118 26 137 29 23 80 26 108 6 17 -13 19 -28 21 -138 1 -68 2 -136
2 -151 1 -27 3 -28 49 -25 l47 3 0 155 c-1 171 -9 200 -65 234 -50 29 -156 13
-182 -28 -4 -6 -11 -1 -16 14 -8 20 -16 25 -46 25 -21 1 -38 -2 -40 -5z"/>
</g>
</svg>
